<svg class="icon" viewBox="0 0 1024 1024" version="1" xmlns="http://www.w3.org/2000/svg" width="200" height="200"><defs><style/></defs><path d="M906 599c0 165-177 299-394 299S118 764 118 599s177-364 394-364 394 199 394 364z" fill="#F9CB58"/><path d="M906 599c0 165-177 299-394 299S118 764 118 599s177-279 394-279 394 114 394 279z" fill="#E29C37"/><path d="M512 785c192 0 353-105 387-244-6-27-16-53-30-79-45 52-146 170-357 170S201 514 155 462c-14 26-24 52-30 79 34 139 195 244 387 244z" fill="#96562C"/><path d="M895 526c-58 64-170 171-383 171S187 590 129 526l-4 15c34 139 195 244 387 244s353-105 387-244l-4-15z" fill="#A8633D"/><path d="M512 797c-195 0-362-106-398-253a12 12 0 0 1 0-6c6-27 16-55 30-82a12 12 0 0 1 9-6 12 12 0 0 1 11 4l2 2c46 53 143 164 346 164s300-111 346-164l2-2a12 12 0 0 1 11-4c4 0 7 3 9 6a349 349 0 0 1 30 88c-36 147-203 253-398 253zM138 541c35 135 191 232 374 232s339-97 374-232a317 317 0 0 0-19-58 444 444 0 0 1-355 161 444 444 0 0 1-355-161 318 318 0 0 0-19 58z" fill="#33363A"/><path d="M906 599c0 165-177 299-394 299S118 764 118 599c0-166 50 147 394 147s394-313 394-147z" fill="#F9F1D2"/><path d="M906 599c0 165-177 219-394 219s-394-54-394-219c0-166 50 147 394 147s394-313 394-147z" fill="#FFE98D"/><path d="M512 910c-224 0-406-139-406-311 0-38 2-54 15-59 14-5 24 6 44 29 47 54 144 165 347 165s300-111 347-165c20-23 30-34 44-29 13 4 15 21 15 59 0 172-182 311-406 311zM132 568c-1 5-2 15-2 31 0 158 172 287 382 287s382-129 382-287c0-16-1-26-2-31l-15 17a449 449 0 0 1-365 173c-214 0-316-117-365-173l-15-17z" fill="#33363A"/><path d="M512 910c-224 0-406-139-406-311 0-170 181-376 406-376s406 206 406 376c0 172-182 311-406 311zm0-663c-211 0-382 193-382 352 0 158 172 287 382 287s382-129 382-287c0-159-171-352-382-352z" fill="#33363A"/><path d="M141 91l-20 166-86-47 40 140-63 10 254 269h79z" fill="#F9F1D2"/><path d="M303 629L141 201l-20 167-49-27 3 9-30 5 16 56 205 218z" fill="#FFE98D"/><path d="M345 641h-79c-3 0-7-1-9-4L3 368a12 12 0 0 1 7-20l49-8-35-127a12 12 0 0 1 17-14l70 39 18-149a12 12 0 0 1 10-10 12 12 0 0 1 13 7l204 539a12 12 0 0 1-11 16zm-74-24h57L147 140l-15 118a12 12 0 0 1-17 9l-61-33 32 113a12 12 0 0 1-10 15l-40 6 235 249z" fill="#33363A"/><path d="M883 91l21 166 85-47-39 140 62 10-254 269h-79z" fill="#F9F1D2"/><path d="M721 629l162-428 21 167 48-27-2 9 29 5-16 56-205 218z" fill="#FFE98D"/><path d="M758 641h-79a12 12 0 0 1-11-16L872 86a12 12 0 0 1 13-7 12 12 0 0 1 10 10l18 149 70-39a12 12 0 0 1 18 14l-36 127 49 8a12 12 0 0 1 7 20L767 637a12 12 0 0 1-9 4zm-62-24h57l235-249-40-6a12 12 0 0 1-10-15l32-113-61 33a12 12 0 0 1-17-9l-15-118-181 477z" fill="#33363A"/><path d="M383 668a64 64 0 0 1-65 65 64 64 0 0 1-64-65 64 64 0 1 1 129 0z" fill="#5B524D"/><path d="M260 647a26 26 0 1 0 53 0 26 26 0 1 0-53 0z" fill="#FFF"/><path d="M318 592c-26 0-49 13-62 33a37 37 0 0 0-3 3 76 76 0 0 0-11 40 76 76 0 1 0 76-76zm0 129a52 52 0 0 1-48-33l20-3a38 38 0 0 0 7-1c7-2 14-2 21-2 20 0 37 6 49 6a52 52 0 0 1-49 33z" fill="#33363A"/><path d="M272 647a14 14 0 1 0 28 0 14 14 0 1 0-28 0z" fill="#FFF"/><path d="M770 668a64 64 0 0 1-64 65 64 64 0 1 1 64-65z" fill="#5B524D"/><path d="M647 647a26 26 0 1 0 53 0 26 26 0 1 0-53 0z" fill="#FFF"/><path d="M706 592c-26 0-49 13-63 33a38 38 0 0 0-2 3 76 76 0 0 0-12 40 76 76 0 1 0 77-76zm0 129a52 52 0 0 1-49-33l20-3 8-1c6-2 13-3 21-3 19 0 36 7 48 7a52 52 0 0 1-48 33z" fill="#33363A"/><path d="M659 647a14 14 0 1 0 29 0 14 14 0 1 0-29 0z" fill="#FFF"/><path d="M595 718c0 11-37 13-83 13s-84-2-84-13c0-12 37-41 84-41 46 0 83 29 83 41z" fill="#A8633D"/><path d="M660 786L512 933 364 786l148-97z" fill="#E5B1C4"/><path d="M512 689l148 97-148 147" fill="#B78094"/><path d="M660 786L512 933 364 786l148 36z" fill="#C191A0"/><path d="M512 945c-3 0-6-1-8-3L356 794a12 12 0 0 1 2-18l147-97c4-3 10-3 14 0l147 97a12 12 0 0 1 2 18L520 942c-2 2-5 3-8 3zM383 788l129 129 129-129-129-85-129 85z" fill="#33363A"/><path d="M743 321l-75-168-73 32-83-83-83 83-72-32-76 168 168 75 4-8 59 59 59-59 4 8z" fill="#F9CB58"/><path d="M595 326l-83-84-83 84-72-33-23 51 115 52 4-8 59 59 59-59 4 8 115-52-22-51z" fill="#E29C37"/><path d="M743 333a12 12 0 0 1-11-7l-71-157-61 27a12 12 0 0 1-13-2l-75-75-75 75a12 12 0 0 1-13 2l-61-27-71 157a12 12 0 1 1-22-10l76-168a12 12 0 0 1 15-6l65 29 78-78a12 12 0 0 1 16 0l78 78 65-29a12 12 0 0 1 15 6l76 168a12 12 0 0 1-11 17z" fill="#33363A"/></svg>